<svg width="126" height="132" viewBox="0 0 126 132" fill="none" xmlns="http://www.w3.org/2000/svg">
<g filter="url(#filter0_d_17_155)">
<mask id="path-1-inside-1_17_155" fill="white">
<path d="M59.9961 0C62.0615 0 63.7363 1.67481 63.7363 3.74023V22.3664C63.7363 24.2971 65.219 25.9001 67.1072 26.3029C69.0011 26.707 70.9665 25.8274 71.749 24.056L79.2842 6.99707C80.1186 5.10782 82.3265 4.25263 84.2158 5.08691C86.1051 5.92136 86.9603 8.12926 86.126 10.0186L78.2675 27.8084C77.6618 29.1797 78.1938 30.7779 79.4268 31.6306C80.6685 32.4894 82.3602 32.4114 83.4278 31.3439L97.1582 17.6152C98.6186 16.1549 100.987 16.1549 102.447 17.6152C103.908 19.0757 103.908 21.4438 102.447 22.9043L88.9965 36.3542C87.7511 37.5996 87.6517 39.567 88.6198 41.0384C89.5926 42.5171 91.4569 43.214 93.098 42.5507L110.76 35.4121C112.675 34.6382 114.854 35.5628 115.628 37.4775C116.402 39.3924 115.477 41.5726 113.562 42.3467L95.634 49.5932C94.1333 50.1998 93.3396 51.8167 93.6441 53.4066C93.9503 55.0051 95.3018 56.2559 96.9294 56.2559H116.26C118.325 56.2559 120 57.9299 120 59.9951C120 62.0604 118.326 63.7351 116.261 63.7354H97.4264C95.5008 63.7354 93.902 65.214 93.5006 67.0973C93.0981 68.9853 93.9752 70.944 95.7409 71.7243L112.988 79.3457C114.877 80.1805 115.732 82.3891 114.897 84.2783C114.063 86.1674 111.855 87.022 109.966 86.1875L91.9362 78.2203C90.6038 77.6316 89.0505 78.1485 88.2247 79.3484C87.3967 80.5516 87.4767 82.1866 88.5094 83.2194L102.43 97.1396C103.89 98.6 103.89 100.967 102.43 102.428C100.969 103.888 98.6011 103.888 97.1406 102.428L83.6143 88.9014C82.358 87.6451 80.3715 87.5504 78.8921 88.5342C77.4161 89.5158 76.723 91.3832 77.3873 93.0265L84.5508 110.747C85.3248 112.662 84.4002 114.842 82.4854 115.616C80.5705 116.39 78.3903 115.465 77.6162 113.55L70.3554 95.5886C69.7504 94.0921 68.1347 93.3034 66.5504 93.6129C64.9694 93.9219 63.7363 95.2617 63.7363 96.8727V116.26C63.7363 118.325 62.0615 120 59.9961 120C57.9307 120 56.2568 118.325 56.2568 116.26V97.4752C56.2568 95.5362 54.762 93.9292 52.8637 93.5343C50.9753 93.1414 49.0223 94.0223 48.2431 95.7867L40.665 112.946C39.8306 114.836 37.6227 115.691 35.7334 114.856C33.8441 114.022 32.9888 111.814 33.8232 109.925L41.7269 92.028C42.3161 90.694 41.7941 89.1389 40.5888 88.3178C39.3893 87.5008 37.7661 87.5846 36.7399 88.6108L22.8828 102.469C21.4224 103.929 19.0551 103.929 17.5947 102.469C16.1343 101.008 16.1343 98.6402 17.5947 97.1797L30.9578 83.8158C32.2458 82.5277 32.3372 80.4893 31.3239 78.9755C30.3179 77.4725 28.4127 76.7661 26.7359 77.444L9.24316 84.5156C7.32838 85.2896 5.14819 84.3649 4.37402 82.4502C3.6 80.5354 4.52474 78.3552 6.43945 77.5811L24.2046 70.3994C25.7117 69.7901 26.5052 68.1623 26.1929 66.567C25.8815 64.9762 24.5334 63.7354 22.9125 63.7354H3.74023C1.67481 63.7354 0 62.0605 0 59.9951C0.00019017 57.9299 1.67493 56.2559 3.74023 56.2559H22.3119C24.2592 56.2559 25.8731 54.7545 26.2706 52.8482C26.6663 50.9508 25.7823 48.9877 24.0094 48.2043L7.0459 40.709C5.1567 39.8742 4.30191 37.6656 5.13672 35.7764C5.97155 33.8873 8.17925 33.0325 10.0684 33.8672L27.727 41.6695C29.0968 42.2748 30.6936 41.7395 31.541 40.5047C32.3881 39.2703 32.3065 37.5945 31.2478 36.5359L17.5762 22.8643C16.1159 21.4038 16.1159 19.0356 17.5762 17.5752C19.0366 16.1148 21.4048 16.1148 22.8652 17.5752L36.153 30.863C37.43 32.14 39.4491 32.2362 40.9547 31.2387C42.4605 30.2412 43.1708 28.3387 42.4939 26.6641L35.4473 9.23047C34.6733 7.31565 35.5979 5.13544 37.5127 4.36133C39.4276 3.58727 41.6078 4.51284 42.3818 6.42773L49.5492 24.1584C50.1601 25.6696 51.789 26.4681 53.3899 26.1613C54.9982 25.853 56.2568 24.4933 56.2568 22.8557V3.74023C56.2568 1.67487 57.9307 8.91621e-05 59.9961 0Z"/>
</mask>
<path d="M59.9961 0C62.0615 0 63.7363 1.67481 63.7363 3.74023V22.3664C63.7363 24.2971 65.219 25.9001 67.1072 26.3029C69.0011 26.707 70.9665 25.8274 71.749 24.056L79.2842 6.99707C80.1186 5.10782 82.3265 4.25263 84.2158 5.08691C86.1051 5.92136 86.9603 8.12926 86.126 10.0186L78.2675 27.8084C77.6618 29.1797 78.1938 30.7779 79.4268 31.6306C80.6685 32.4894 82.3602 32.4114 83.4278 31.3439L97.1582 17.6152C98.6186 16.1549 100.987 16.1549 102.447 17.6152C103.908 19.0757 103.908 21.4438 102.447 22.9043L88.9965 36.3542C87.7511 37.5996 87.6517 39.567 88.6198 41.0384C89.5926 42.5171 91.4569 43.214 93.098 42.5507L110.76 35.4121C112.675 34.6382 114.854 35.5628 115.628 37.4775C116.402 39.3924 115.477 41.5726 113.562 42.3467L95.634 49.5932C94.1333 50.1998 93.3396 51.8167 93.6441 53.4066C93.9503 55.0051 95.3018 56.2559 96.9294 56.2559H116.26C118.325 56.2559 120 57.9299 120 59.9951C120 62.0604 118.326 63.7351 116.261 63.7354H97.4264C95.5008 63.7354 93.902 65.214 93.5006 67.0973C93.0981 68.9853 93.9752 70.944 95.7409 71.7243L112.988 79.3457C114.877 80.1805 115.732 82.3891 114.897 84.2783C114.063 86.1674 111.855 87.022 109.966 86.1875L91.9362 78.2203C90.6038 77.6316 89.0505 78.1485 88.2247 79.3484C87.3967 80.5516 87.4767 82.1866 88.5094 83.2194L102.43 97.1396C103.89 98.6 103.89 100.967 102.43 102.428C100.969 103.888 98.6011 103.888 97.1406 102.428L83.6143 88.9014C82.358 87.6451 80.3715 87.5504 78.8921 88.5342C77.4161 89.5158 76.723 91.3832 77.3873 93.0265L84.5508 110.747C85.3248 112.662 84.4002 114.842 82.4854 115.616C80.5705 116.39 78.3903 115.465 77.6162 113.55L70.3554 95.5886C69.7504 94.0921 68.1347 93.3034 66.5504 93.6129C64.9694 93.9219 63.7363 95.2617 63.7363 96.8727V116.26C63.7363 118.325 62.0615 120 59.9961 120C57.9307 120 56.2568 118.325 56.2568 116.26V97.4752C56.2568 95.5362 54.762 93.9292 52.8637 93.5343C50.9753 93.1414 49.0223 94.0223 48.2431 95.7867L40.665 112.946C39.8306 114.836 37.6227 115.691 35.7334 114.856C33.8441 114.022 32.9888 111.814 33.8232 109.925L41.7269 92.028C42.3161 90.694 41.7941 89.1389 40.5888 88.3178C39.3893 87.5008 37.7661 87.5846 36.7399 88.6108L22.8828 102.469C21.4224 103.929 19.0551 103.929 17.5947 102.469C16.1343 101.008 16.1343 98.6402 17.5947 97.1797L30.9578 83.8158C32.2458 82.5277 32.3372 80.4893 31.3239 78.9755C30.3179 77.4725 28.4127 76.7661 26.7359 77.444L9.24316 84.5156C7.32838 85.2896 5.14819 84.3649 4.37402 82.4502C3.6 80.5354 4.52474 78.3552 6.43945 77.5811L24.2046 70.3994C25.7117 69.7901 26.5052 68.1623 26.1929 66.567C25.8815 64.9762 24.5334 63.7354 22.9125 63.7354H3.74023C1.67481 63.7354 0 62.0605 0 59.9951C0.00019017 57.9299 1.67493 56.2559 3.74023 56.2559H22.3119C24.2592 56.2559 25.8731 54.7545 26.2706 52.8482C26.6663 50.9508 25.7823 48.9877 24.0094 48.2043L7.0459 40.709C5.1567 39.8742 4.30191 37.6656 5.13672 35.7764C5.97155 33.8873 8.17925 33.0325 10.0684 33.8672L27.727 41.6695C29.0968 42.2748 30.6936 41.7395 31.541 40.5047C32.3881 39.2703 32.3065 37.5945 31.2478 36.5359L17.5762 22.8643C16.1159 21.4038 16.1159 19.0356 17.5762 17.5752C19.0366 16.1148 21.4048 16.1148 22.8652 17.5752L36.153 30.863C37.43 32.14 39.4491 32.2362 40.9547 31.2387C42.4605 30.2412 43.1708 28.3387 42.4939 26.6641L35.4473 9.23047C34.6733 7.31565 35.5979 5.13544 37.5127 4.36133C39.4276 3.58727 41.6078 4.51284 42.3818 6.42773L49.5492 24.1584C50.1601 25.6696 51.789 26.4681 53.3899 26.1613C54.9982 25.853 56.2568 24.4933 56.2568 22.8557V3.74023C56.2568 1.67487 57.9307 8.91621e-05 59.9961 0Z" fill="#FFBCBC"/>
<path d="M59.9961 0V-2.59966H59.996L59.9961 0ZM63.7363 3.74023H66.336H63.7363ZM79.2842 6.99707L81.6622 8.04748L81.6622 8.0474L79.2842 6.99707ZM84.2158 5.08691L85.2661 2.70888L85.266 2.7088L84.2158 5.08691ZM86.126 10.0186L88.504 11.069L88.5041 11.0687L86.126 10.0186ZM97.1582 17.6152L98.9963 19.4536L98.9964 19.4535L97.1582 17.6152ZM102.447 17.6152L104.286 15.777L104.285 15.7769L102.447 17.6152ZM102.447 22.9043L104.285 24.7426L104.286 24.7425L102.447 22.9043ZM110.76 35.4121L111.734 37.8223L111.734 37.8223L110.76 35.4121ZM115.628 37.4775L118.038 36.5033L118.038 36.5031L115.628 37.4775ZM113.562 42.3467L114.537 44.7569L114.537 44.7569L113.562 42.3467ZM120 59.9951H122.6V59.9949L120 59.9951ZM116.261 63.7354V66.335H116.261L116.261 63.7354ZM112.988 79.3457L111.938 81.7236H111.938L112.988 79.3457ZM114.897 84.2783L117.275 85.3291L117.275 85.329L114.897 84.2783ZM109.966 86.1875L108.915 88.5653L108.915 88.5655L109.966 86.1875ZM102.43 97.1396L104.268 95.3017L104.268 95.3014L102.43 97.1396ZM102.43 102.428L104.268 104.266L104.268 104.266L102.43 102.428ZM84.5508 110.747L86.961 109.773L86.961 109.773L84.5508 110.747ZM82.4854 115.616L83.4596 118.026L83.4596 118.026L82.4854 115.616ZM77.6162 113.55L80.0264 112.576L80.0264 112.575L77.6162 113.55ZM59.9961 120L59.996 122.6H59.9961V120ZM40.665 112.946L43.0431 113.997L43.0431 113.997L40.665 112.946ZM35.7334 114.856L34.6831 117.234L34.6831 117.234L35.7334 114.856ZM33.8232 109.925L36.2013 110.975L36.2013 110.975L33.8232 109.925ZM22.8828 102.469L24.7208 104.307L24.7211 104.307L22.8828 102.469ZM17.5947 102.469L15.7565 104.307L15.7567 104.307L17.5947 102.469ZM17.5947 97.1797L19.433 99.0179L19.433 99.0179L17.5947 97.1797ZM9.24316 84.5156L10.2174 86.9258L10.2175 86.9258L9.24316 84.5156ZM4.37402 82.4502L1.96383 83.4245L1.96391 83.4247L4.37402 82.4502ZM6.43945 77.5811L5.46512 75.1709L5.465 75.1709L6.43945 77.5811ZM0 59.9951L-2.59966 59.9949V59.9951H0ZM7.0459 40.709L5.99516 43.0868L5.99523 43.0869L7.0459 40.709ZM5.13672 35.7764L2.7589 34.7255L2.75886 34.7256L5.13672 35.7764ZM10.0684 33.8672L11.119 31.4893L11.119 31.4893L10.0684 33.8672ZM17.5762 22.8643L15.7378 24.7024L15.7379 24.7025L17.5762 22.8643ZM17.5762 17.5752L15.7379 15.737L15.7378 15.737L17.5762 17.5752ZM22.8652 17.5752L24.7035 15.737L24.7034 15.7369L22.8652 17.5752ZM35.4473 9.23047L37.8575 8.25626L37.8575 8.25622L35.4473 9.23047ZM37.5127 4.36133L36.5384 1.95113L36.5383 1.95118L37.5127 4.36133ZM42.3818 6.42773L39.9716 7.40201L39.9716 7.40202L42.3818 6.42773ZM56.2568 3.74023H53.6572H56.2568ZM49.5492 24.1584L51.9594 23.1841L49.5492 24.1584ZM42.4939 26.6641L40.0837 27.6383L42.4939 26.6641ZM36.153 30.863L34.3148 32.7012L36.153 30.863ZM27.727 41.6695L28.7776 39.2916L27.727 41.6695ZM24.0094 48.2043L25.0601 45.8264L24.0094 48.2043ZM24.2046 70.3994L23.2303 67.9892L24.2046 70.3994ZM30.9578 83.8158L32.796 85.654L30.9578 83.8158ZM41.7269 92.028L39.3488 90.9778L41.7269 92.028ZM48.2431 95.7867L45.865 94.7365L48.2431 95.7867ZM70.3554 95.5886L72.7656 94.6143L70.3554 95.5886ZM91.9362 78.2203L90.8854 80.5982L91.9362 78.2203ZM95.634 49.5932L94.6599 47.1829L95.634 49.5932ZM83.4278 31.3439L85.2659 33.1823L83.4278 31.3439ZM71.749 24.056L69.371 23.0056L71.749 24.056ZM95.7409 71.7243L94.6902 74.1021L95.7409 71.7243ZM88.9965 36.3542L87.1583 34.5159L88.9965 36.3542ZM26.7359 77.444L27.7102 79.8541L26.7359 77.444ZM78.2675 27.8084L75.8895 26.758L78.2675 27.8084ZM93.098 42.5507L92.1238 40.1405L93.098 42.5507ZM36.7399 88.6108L38.5782 90.449L36.7399 88.6108ZM59.9961 0V2.59966C60.6258 2.59966 61.1367 3.11057 61.1367 3.74023H63.7363H66.336C66.336 0.239059 63.4973 -2.59966 59.9961 -2.59966V0ZM63.7363 3.74023H61.1367V22.3664H63.7363H66.336V3.74023H63.7363ZM71.749 24.056L74.127 25.1064L81.6622 8.04748L79.2842 6.99707L76.9062 5.94666L69.371 23.0056L71.749 24.056ZM79.2842 6.99707L81.6622 8.0474C81.9166 7.47138 82.5898 7.21072 83.1657 7.46503L84.2158 5.08691L85.266 2.7088C82.0633 1.29454 78.3206 2.74425 76.9061 5.94674L79.2842 6.99707ZM84.2158 5.08691L83.1655 7.46495C83.7416 7.71939 84.0022 8.39251 83.7479 8.96837L86.126 10.0186L88.5041 11.0687C89.9184 7.86601 88.4686 4.12334 85.2661 2.70888L84.2158 5.08691ZM86.126 10.0186L83.748 8.96811L75.8895 26.758L78.2675 27.8084L80.6455 28.8589L88.504 11.069L86.126 10.0186ZM83.4278 31.3439L85.2659 33.1823L98.9963 19.4536L97.1582 17.6152L95.3201 15.7769L81.5897 29.5056L83.4278 31.3439ZM97.1582 17.6152L98.9964 19.4535C99.4416 19.0084 100.164 19.0083 100.609 19.4535L102.447 17.6152L104.285 15.7769C101.81 13.3015 97.7957 13.3014 95.32 15.7769L97.1582 17.6152ZM102.447 17.6152L100.609 19.4535C101.054 19.8986 101.054 20.6208 100.609 21.0661L102.447 22.9043L104.286 24.7425C106.761 22.2668 106.761 18.2527 104.286 15.777L102.447 17.6152ZM102.447 22.9043L100.609 21.066L87.1583 34.5159L88.9965 36.3542L90.8347 38.1925L104.285 24.7426L102.447 22.9043ZM93.098 42.5507L94.0721 44.9609L111.734 37.8223L110.76 35.4121L109.786 33.0019L92.1238 40.1405L93.098 42.5507ZM110.76 35.4121L111.734 37.8223C112.318 37.5864 112.982 37.8681 113.218 38.4519L115.628 37.4775L118.038 36.5031C116.726 33.2575 113.032 31.6899 109.786 33.0019L110.76 35.4121ZM115.628 37.4775L113.218 38.4518C113.454 39.036 113.172 39.7007 112.588 39.9365L113.562 42.3467L114.537 44.7569C117.783 43.4446 119.35 39.7488 118.038 36.5033L115.628 37.4775ZM113.562 42.3467L112.588 39.9365L94.6599 47.1829L95.634 49.5932L96.6082 52.0034L114.537 44.7569L113.562 42.3467ZM96.9294 56.2559V58.8555H116.26V56.2559V53.6562H96.9294V56.2559ZM116.26 56.2559V58.8555C116.89 58.8555 117.4 59.3663 117.4 59.9954L120 59.9951L122.6 59.9949C122.599 56.4934 119.76 53.6562 116.26 53.6562V56.2559ZM120 59.9951H117.4C117.4 60.6252 116.89 61.1356 116.26 61.1357L116.261 63.7354L116.261 66.335C119.762 66.3346 122.6 63.4956 122.6 59.9951H120ZM116.261 63.7354V61.1357H97.4264V63.7354V66.335H116.261V63.7354ZM95.7409 71.7243L94.6902 74.1021L111.938 81.7236L112.988 79.3457L114.039 76.9678L96.7917 69.3464L95.7409 71.7243ZM112.988 79.3457L111.938 81.7236C112.513 81.978 112.774 82.6515 112.52 83.2276L114.897 84.2783L117.275 85.329C118.69 82.1267 117.242 78.383 114.039 76.9678L112.988 79.3457ZM114.897 84.2783L112.52 83.2276C112.265 83.8035 111.592 84.064 111.016 83.8095L109.966 86.1875L108.915 88.5655C112.118 89.9801 115.86 88.5313 117.275 85.3291L114.897 84.2783ZM109.966 86.1875L111.017 83.8097L92.9869 75.8425L91.9362 78.2203L90.8854 80.5982L108.915 88.5653L109.966 86.1875ZM88.5094 83.2194L86.6712 85.0576L100.591 98.9779L102.43 97.1396L104.268 95.3014L90.3476 81.3811L88.5094 83.2194ZM102.43 97.1396L100.591 98.9776C101.036 99.4229 101.036 100.145 100.591 100.59L102.43 102.428L104.268 104.266C106.743 101.79 106.743 97.7772 104.268 95.3017L102.43 97.1396ZM102.43 102.428L100.591 100.589C100.146 101.035 99.4241 101.035 98.9789 100.589L97.1406 102.428L95.3024 104.266C97.7781 106.742 101.792 106.742 104.268 104.266L102.43 102.428ZM97.1406 102.428L98.9789 100.589L85.4525 87.0631L83.6143 88.9014L81.776 90.7396L95.3024 104.266L97.1406 102.428ZM77.3873 93.0265L74.9771 94.0008L82.1406 111.721L84.5508 110.747L86.961 109.773L79.7975 92.0522L77.3873 93.0265ZM84.5508 110.747L82.1406 111.721C82.3767 112.306 82.0944 112.97 81.5111 113.206L82.4854 115.616L83.4596 118.026C86.7061 116.714 88.2729 113.018 86.961 109.773L84.5508 110.747ZM82.4854 115.616L81.5111 113.206C80.9279 113.442 80.2626 113.16 80.0264 112.576L77.6162 113.55L75.206 114.524C76.5179 117.769 80.213 119.339 83.4596 118.026L82.4854 115.616ZM77.6162 113.55L80.0264 112.575L72.7656 94.6143L70.3554 95.5886L67.9452 96.5629L75.206 114.524L77.6162 113.55ZM63.7363 96.8727H61.1367V116.26H63.7363H66.336V96.8727H63.7363ZM63.7363 116.26H61.1367C61.1367 116.889 60.6258 117.4 59.9961 117.4V120V122.6C63.4973 122.6 66.336 119.761 66.336 116.26H63.7363ZM59.9961 120L59.9962 117.4C59.3673 117.4 58.8565 116.89 58.8565 116.26H56.2568H53.6572C53.6572 119.76 56.4942 122.6 59.996 122.6L59.9961 120ZM56.2568 116.26H58.8565V97.4752H56.2568H53.6572V116.26H56.2568ZM48.2431 95.7867L45.865 94.7365L38.287 111.896L40.665 112.946L43.0431 113.997L50.6212 96.8369L48.2431 95.7867ZM40.665 112.946L38.287 111.896C38.0325 112.472 37.3594 112.733 36.7837 112.478L35.7334 114.856L34.6831 117.234C37.886 118.649 41.6286 117.199 43.0431 113.997L40.665 112.946ZM35.7334 114.856L36.7837 112.478C36.2074 112.224 35.947 111.551 36.2013 110.975L33.8232 109.925L31.4452 108.874C30.0305 112.077 31.4807 115.82 34.6831 117.234L35.7334 114.856ZM33.8232 109.925L36.2013 110.975L44.105 93.0783L41.7269 92.028L39.3488 90.9778L31.4452 108.875L33.8232 109.925ZM36.7399 88.6108L34.9016 86.7727L21.0445 100.631L22.8828 102.469L24.7211 104.307L38.5782 90.449L36.7399 88.6108ZM22.8828 102.469L21.0448 100.63C20.5996 101.075 19.8779 101.075 19.4327 100.63L17.5947 102.469L15.7567 104.307C18.2323 106.782 22.2452 106.782 24.7208 104.307L22.8828 102.469ZM17.5947 102.469L19.433 100.631C18.9877 100.185 18.9877 99.4632 19.433 99.0179L17.5947 97.1797L15.7565 95.3414C13.2808 97.8172 13.2808 101.831 15.7565 104.307L17.5947 102.469ZM17.5947 97.1797L19.433 99.0179L32.796 85.654L30.9578 83.8158L29.1195 81.9776L15.7564 95.3415L17.5947 97.1797ZM26.7359 77.444L25.7616 75.0338L8.26882 82.1055L9.24316 84.5156L10.2175 86.9258L27.7102 79.8541L26.7359 77.444ZM9.24316 84.5156L8.26889 82.1054C7.68499 82.3415 7.02008 82.0593 6.78414 81.4757L4.37402 82.4502L1.96391 83.4247C3.27629 86.6705 6.97176 88.2378 10.2174 86.9258L9.24316 84.5156ZM4.37402 82.4502L6.78422 81.4759C6.54817 80.892 6.83038 80.2271 7.41391 79.9912L6.43945 77.5811L5.465 75.1709C2.21911 76.4833 0.651835 80.1788 1.96383 83.4245L4.37402 82.4502ZM6.43945 77.5811L7.41378 79.9912L25.1789 72.8095L24.2046 70.3994L23.2303 67.9892L5.46512 75.1709L6.43945 77.5811ZM22.9125 63.7354V61.1357H3.74023V63.7354V66.335H22.9125V63.7354ZM3.74023 63.7354V61.1357C3.11057 61.1357 2.59966 60.6248 2.59966 59.9951H0H-2.59966C-2.59966 63.4963 0.23906 66.335 3.74023 66.335V63.7354ZM0 59.9951L2.59966 59.9954C2.59972 59.3663 3.11004 58.8555 3.74023 58.8555V56.2559V53.6562C0.239822 53.6562 -2.59934 56.4934 -2.59966 59.9949L0 59.9951ZM3.74023 56.2559V58.8555H22.3119V56.2559V53.6562H3.74023V56.2559ZM24.0094 48.2043L25.0601 45.8264L8.09657 38.3311L7.0459 40.709L5.99523 43.0869L22.9588 50.5822L24.0094 48.2043ZM7.0459 40.709L8.09664 38.3311C7.5208 38.0767 7.26003 37.4032 7.51457 36.8271L5.13672 35.7764L2.75886 34.7256C1.34379 37.928 2.7926 41.6717 5.99516 43.0868L7.0459 40.709ZM5.13672 35.7764L7.51453 36.8272C7.76916 36.251 8.44209 35.9908 9.01773 36.2451L10.0684 33.8672L11.119 31.4893C7.9164 30.0743 4.17394 31.5236 2.7589 34.7255L5.13672 35.7764ZM10.0684 33.8672L9.0177 36.2451L26.6763 44.0474L27.727 41.6695L28.7776 39.2916L11.119 31.4893L10.0684 33.8672ZM31.2478 36.5359L33.0861 34.6977L19.4144 21.026L17.5762 22.8643L15.7379 24.7025L29.4096 38.3742L31.2478 36.5359ZM17.5762 22.8643L19.4145 21.0261C18.9693 20.5809 18.9693 19.8586 19.4145 19.4133L17.5762 17.5752L15.7378 15.737C13.2624 18.2127 13.2624 22.2268 15.7378 24.7024L17.5762 22.8643ZM17.5762 17.5752L19.4144 19.4134C19.8595 18.9683 20.5817 18.9682 21.0271 19.4135L22.8652 17.5752L24.7034 15.7369C22.2278 13.2615 18.2137 13.2612 15.7379 15.737L17.5762 17.5752ZM22.8652 17.5752L21.027 19.4134L34.3148 32.7012L36.153 30.863L37.9912 29.0247L24.7035 15.737L22.8652 17.5752ZM42.4939 26.6641L44.9041 25.6899L37.8575 8.25626L35.4473 9.23047L33.037 10.2047L40.0837 27.6383L42.4939 26.6641ZM35.4473 9.23047L37.8575 8.25622C37.6214 7.67216 37.9037 7.00734 38.4871 6.77148L37.5127 4.36133L36.5383 1.95118C33.2922 3.26353 31.7251 6.95913 33.0371 10.2047L35.4473 9.23047ZM37.5127 4.36133L38.487 6.77152C39.0701 6.5358 39.7354 6.8176 39.9716 7.40201L42.3818 6.42773L44.792 5.45346C43.4802 2.20809 39.7851 0.638746 36.5384 1.95113L37.5127 4.36133ZM42.3818 6.42773L39.9716 7.40202L47.139 25.1327L49.5492 24.1584L51.9594 23.1841L44.792 5.45345L42.3818 6.42773ZM56.2568 22.8557H58.8565V3.74023H56.2568H53.6572V22.8557H56.2568ZM56.2568 3.74023H58.8565C58.8565 3.10985 59.3673 2.59969 59.9962 2.59966L59.9961 0L59.996 -2.59966C56.4942 -2.59951 53.6572 0.239887 53.6572 3.74023H56.2568ZM53.3899 26.1613L53.8793 28.7144C56.5619 28.2002 58.8565 25.8874 58.8565 22.8557H56.2568H53.6572C53.6572 22.9894 53.6093 23.1375 53.4791 23.2848C53.3428 23.4389 53.1382 23.5625 52.9005 23.6081L53.3899 26.1613ZM49.5492 24.1584L47.139 25.1327C48.2572 27.8988 51.172 29.2334 53.8793 28.7144L53.3899 26.1613L52.9005 23.6081C52.406 23.7029 52.063 23.4405 51.9594 23.1841L49.5492 24.1584ZM40.9547 31.2387L42.3905 33.4059C44.799 31.8104 46.0991 28.6462 44.9041 25.6899L42.4939 26.6641L40.0837 27.6383C40.2425 28.0312 40.122 28.672 39.519 29.0715L40.9547 31.2387ZM36.153 30.863L34.3148 32.7012C36.5625 34.949 39.9723 35.0079 42.3905 33.4059L40.9547 31.2387L39.519 29.0715C38.9259 29.4644 38.2976 29.331 37.9912 29.0247L36.153 30.863ZM31.541 40.5047L33.6845 41.9756C35.1737 39.8055 35.1108 36.7224 33.0861 34.6977L31.2478 36.5359L29.4096 38.3742C29.4654 38.4299 29.5073 38.5088 29.5151 38.6266C29.5234 38.7519 29.4891 38.9002 29.3975 39.0338L31.541 40.5047ZM27.727 41.6695L26.6763 44.0474C29.3029 45.208 32.2013 44.137 33.6845 41.9756L31.541 40.5047L29.3975 39.0338C29.3045 39.1693 29.1749 39.258 29.0506 39.297C28.9339 39.3337 28.8457 39.3217 28.7776 39.2916L27.727 41.6695ZM26.2706 52.8482L28.8155 53.3789C29.4336 50.4154 28.0759 47.159 25.0601 45.8264L24.0094 48.2043L22.9588 50.5822C23.4887 50.8164 23.8991 51.4861 23.7257 52.3174L26.2706 52.8482ZM22.3119 56.2559V58.8555C25.6628 58.8555 28.2036 56.3132 28.8155 53.3789L26.2706 52.8482L23.7257 52.3174C23.5426 53.1957 22.8555 53.6562 22.3119 53.6562V56.2559ZM26.1929 66.567L28.7441 66.0676C28.2228 63.4044 25.9212 61.1357 22.9125 61.1357V63.7354V66.335C23.0408 66.335 23.1836 66.3807 23.3264 66.5063C23.4759 66.6378 23.5965 66.8358 23.6416 67.0664L26.1929 66.567ZM24.2046 70.3994L25.1789 72.8095C27.9453 71.6912 29.2734 68.7712 28.7441 66.0676L26.1929 66.567L23.6416 67.0664C23.7369 67.5534 23.4781 67.889 23.2303 67.9892L24.2046 70.3994ZM30.9578 83.8158L32.796 85.654C35.059 83.3909 35.1082 79.9555 33.4843 77.5295L31.3239 78.9755L29.1636 80.4216C29.5662 81.023 29.4325 81.6645 29.1195 81.9776L30.9578 83.8158ZM41.7269 92.028L44.105 93.0783C45.2491 90.4875 44.1921 87.6268 42.0523 86.1693L40.5888 88.3178L39.1252 90.4664C39.2425 90.5463 39.3184 90.6575 39.3514 90.7623C39.3821 90.8597 39.3709 90.9278 39.3488 90.9778L41.7269 92.028ZM52.8637 93.5343L53.3932 90.9891C50.4382 90.3744 47.1928 91.7298 45.865 94.7365L48.2431 95.7867L50.6212 96.8369C50.8518 96.3147 51.5123 95.9085 52.3342 96.0795L52.8637 93.5343ZM56.2568 97.4752H58.8565C58.8565 94.1328 56.3209 91.5982 53.3932 90.9891L52.8637 93.5343L52.3342 96.0795C53.2031 96.2602 53.6572 96.9397 53.6572 97.4752H56.2568ZM66.5504 93.6129L66.0518 91.0615C63.3973 91.5803 61.1367 93.8743 61.1367 96.8727H63.7363H66.336C66.336 96.7492 66.3798 96.611 66.5022 96.4719C66.6304 96.3262 66.8237 96.2084 67.049 96.1643L66.5504 93.6129ZM70.3554 95.5886L72.7656 94.6143C71.652 91.8597 68.7452 90.5352 66.0518 91.0615L66.5504 93.6129L67.049 96.1643C67.5241 96.0715 67.8488 96.3244 67.9452 96.5629L70.3554 95.5886ZM78.8921 88.5342L77.4524 86.3696C75.0739 87.9514 73.7963 91.0799 74.9771 94.0008L77.3873 93.0265L79.7975 92.0522C79.6497 91.6865 79.7584 91.0802 80.3317 90.6989L78.8921 88.5342ZM83.6143 88.9014L85.4525 87.0631C83.2258 84.8365 79.8468 84.7772 77.4524 86.3696L78.8921 88.5342L80.3317 90.6989C80.8961 90.3235 81.4901 90.4537 81.776 90.7396L83.6143 88.9014ZM88.2247 79.3484L86.0832 77.8746C84.6098 80.0155 84.6729 83.0593 86.6712 85.0576L88.5094 83.2194L90.3476 81.3811C90.3047 81.3382 90.2699 81.2761 90.2633 81.176C90.2561 81.0686 90.2856 80.9394 90.3662 80.8223L88.2247 79.3484ZM91.9362 78.2203L92.9869 75.8425C90.4026 74.7005 87.5477 75.7466 86.0832 77.8746L88.2247 79.3484L90.3662 80.8223C90.4474 80.7042 90.5599 80.6281 90.6658 80.595C90.7644 80.5642 90.834 80.5755 90.8854 80.5982L91.9362 78.2203ZM97.4264 63.7354V61.1357C94.1038 61.1357 91.578 63.6468 90.958 66.5554L93.5006 67.0973L96.0431 67.6393C96.226 66.7812 96.8978 66.335 97.4264 66.335V63.7354ZM95.634 49.5932L94.6599 47.1829C91.9054 48.2963 90.5742 51.1983 91.0909 53.8957L93.6441 53.4066L96.1973 52.9175C96.105 52.4352 96.3612 52.1032 96.6082 52.0034L95.634 49.5932ZM79.4268 31.6306L77.948 33.7687C80.124 35.2737 83.228 35.2199 85.2659 33.1823L83.4278 31.3439L81.5897 29.5056C81.5314 29.5639 81.4489 29.6074 81.3264 29.6153C81.1962 29.6236 81.0429 29.5875 80.9055 29.4925L79.4268 31.6306ZM67.1072 26.3029L66.5648 28.8454C69.5276 29.4775 72.7933 28.1256 74.127 25.1064L71.749 24.056L69.371 23.0056C69.1396 23.5293 68.4746 23.9365 67.6496 23.7605L67.1072 26.3029ZM93.5006 67.0973L90.958 66.5554C90.3277 69.5126 91.6776 72.7709 94.6902 74.1021L95.7409 71.7243L96.7917 69.3464C96.2729 69.1172 95.8686 68.4581 96.0431 67.6393L93.5006 67.0973ZM88.9965 36.3542L87.1583 34.5159C84.9467 36.7274 84.878 40.0809 86.448 42.4672L88.6198 41.0384L90.7916 39.6096C90.4255 39.0532 90.5554 38.4718 90.8347 38.1925L88.9965 36.3542ZM93.6441 53.4066L91.0909 53.8957C91.603 56.5692 93.9081 58.8555 96.9294 58.8555V56.2559V53.6562C96.8006 53.6562 96.657 53.6102 96.5133 53.4832C96.3629 53.3501 96.2419 53.15 96.1973 52.9175L93.6441 53.4066ZM31.3239 78.9755L33.4843 77.5295C31.8785 75.1304 28.7157 73.8396 25.7616 75.0338L26.7359 77.444L27.7102 79.8541C28.1097 79.6927 28.7573 79.8146 29.1636 80.4216L31.3239 78.9755ZM78.2675 27.8084L75.8895 26.758C74.7306 29.3817 75.7928 32.2782 77.948 33.7687L79.4268 31.6306L80.9055 29.4925C80.7684 29.3976 80.6787 29.266 80.6393 29.1397C80.6022 29.0207 80.6142 28.9297 80.6455 28.8589L78.2675 27.8084ZM88.6198 41.0384L86.448 42.4672C88.0193 44.8557 91.1492 46.1423 94.0721 44.9609L93.098 42.5507L92.1238 40.1405C91.7647 40.2856 91.1658 40.1785 90.7916 39.6096L88.6198 41.0384ZM40.5888 88.3178L42.0523 86.1693C39.9149 84.7133 36.8892 84.7849 34.9016 86.7727L36.7399 88.6108L38.5782 90.449C38.6198 90.4074 38.6801 90.3733 38.7779 90.3666C38.8829 90.3594 39.0098 90.3878 39.1252 90.4664L40.5888 88.3178ZM63.7363 22.3664H61.1367C61.1367 25.6943 63.6519 28.2239 66.5648 28.8454L67.1072 26.3029L67.6496 23.7605C66.7861 23.5762 66.336 22.8999 66.336 22.3664H63.7363Z" fill="#F36034" mask="url(#path-1-inside-1_17_155)"/>
</g>
<defs>
<filter id="filter0_d_17_155" x="0" y="0" width="125.719" height="131.698" filterUnits="userSpaceOnUse" color-interpolation-filters="sRGB">
<feFlood flood-opacity="0" result="BackgroundImageFix"/>
<feColorMatrix in="SourceAlpha" type="matrix" values="0 0 0 0 0 0 0 0 0 0 0 0 0 0 0 0 0 0 127 0" result="hardAlpha"/>
<feOffset dx="5.71926" dy="11.6985"/>
<feComposite in2="hardAlpha" operator="out"/>
<feColorMatrix type="matrix" values="0 0 0 0 0.952941 0 0 0 0 0.376471 0 0 0 0 0.203922 0 0 0 1 0"/>
<feBlend mode="normal" in2="BackgroundImageFix" result="effect1_dropShadow_17_155"/>
<feBlend mode="normal" in="SourceGraphic" in2="effect1_dropShadow_17_155" result="shape"/>
</filter>
</defs>
</svg>
