<svg width="152" height="40" viewBox="0 0 152 40" fill="none" xmlns="http://www.w3.org/2000/svg">
<rect width="40" height="40" rx="10" fill="#FFB801"/>
<path d="M18.9781 18.068L18.9521 20.486H13.7781V28H11.1001L11.0741 11.126L18.9781 11.1L18.9521 13.518H13.8301L13.8041 18.094L18.9781 18.068ZM28.5723 11.1L28.5463 28H26.0503V27.246C25.7036 27.922 24.9929 28.26 23.9183 28.26C22.8436 28.26 21.9249 27.8787 21.1623 27.116C20.3996 26.3533 20.0183 25.4347 20.0183 24.36V19.628C20.0183 18.5533 20.3996 17.6347 21.1623 16.872C21.9249 16.1093 22.8436 15.728 23.9183 15.728H24.5943C25.0796 15.728 25.5129 15.9707 25.8943 16.456L25.8683 11.126L28.5723 11.1ZM25.8683 19.524C25.8683 18.536 25.3483 18.042 24.3083 18.042C23.1816 18.042 22.6183 18.77 22.6183 20.226V23.658C22.6183 25.114 23.1469 25.842 24.2043 25.842C24.6376 25.842 25.0189 25.6947 25.3483 25.4C25.6776 25.1053 25.8423 24.7413 25.8423 24.308L25.8683 19.524Z" fill="white"/>
<path d="M70.7501 31H67.4221V20.408L64.5421 31H61.2141L58.5901 20.184V31H55.2621V10.232H58.8141L63.0701 24.984L67.1021 10.232H70.7501V31ZM83.1211 26.52C83.1211 27.8427 82.6518 28.9733 81.7131 29.912C80.7745 30.8507 79.6438 31.32 78.3211 31.32H77.4891C76.1665 31.32 75.0358 30.8507 74.0971 29.912C73.1585 28.9733 72.6891 27.8427 72.6891 26.52V20.696C72.6891 19.3733 73.1585 18.2427 74.0971 17.304C75.0358 16.3653 76.1665 15.896 77.4891 15.896H78.3211C79.6438 15.896 80.7745 16.3653 81.7131 17.304C82.6518 18.2427 83.1211 19.3733 83.1211 20.696V25.112H75.8891V25.656C75.8891 26.6587 76.1131 27.3627 76.5611 27.768C77.0091 28.1733 77.7451 28.376 78.7691 28.376C79.3451 28.376 79.7398 27.7573 79.9531 26.52H83.1211ZM79.9211 22.776V21.752C79.9211 19.96 79.2278 19.064 77.8411 19.064C76.5398 19.064 75.8891 19.96 75.8891 21.752V22.744L79.9211 22.776ZM102.609 20.376L102.577 31H99.4411L99.4091 21.112C99.4091 19.32 98.7158 18.424 97.3291 18.424C96.7531 18.424 96.2625 18.6373 95.8571 19.064C95.4518 19.4693 95.2491 19.96 95.2491 20.536L95.2171 31H92.0491L92.0171 20.536C92.0171 19.9387 91.8251 19.4373 91.4411 19.032C91.0571 18.6267 90.5665 18.424 89.9691 18.424C88.7105 18.424 88.0811 19.032 88.0811 20.248L88.1131 31H84.7531L84.7211 15.64L88.0491 15.672L88.0171 16.472C88.5078 15.8747 89.4251 15.576 90.7691 15.576C91.2811 15.576 91.8785 15.7893 92.5611 16.216C93.2438 16.6213 93.6918 17.048 93.9051 17.496C94.2678 17.0267 94.8118 16.5893 95.5371 16.184C96.2625 15.7787 96.9025 15.576 97.4571 15.576C98.8011 15.576 99.9958 16.0453 101.041 16.984C102.086 17.9013 102.609 19.032 102.609 20.376ZM114.747 26.52C114.747 27.8427 114.278 28.9733 113.339 29.912C112.4 30.8507 111.27 31.32 109.947 31.32H109.115C107.792 31.32 106.662 30.8507 105.723 29.912C104.784 28.9733 104.315 27.8427 104.315 26.52V20.696C104.315 19.3733 104.784 18.2427 105.723 17.304C106.662 16.3653 107.792 15.896 109.115 15.896H109.947C111.27 15.896 112.4 16.3653 113.339 17.304C114.278 18.2427 114.747 19.3733 114.747 20.696V26.52ZM111.547 25.656V21.432C111.547 19.64 110.854 18.744 109.467 18.744C108.166 18.744 107.515 19.64 107.515 21.432V25.656C107.515 27.448 108.208 28.344 109.595 28.344C110.896 28.344 111.547 27.448 111.547 25.656ZM125.404 17.4L122.78 19.512C122.46 18.7867 121.863 18.424 120.988 18.424C119.73 18.424 119.1 19.032 119.1 20.248L119.132 31H115.772L115.74 15.64L119.068 15.672L119.036 16.472C119.527 15.8747 120.444 15.576 121.788 15.576C123.324 15.576 124.53 16.184 125.404 17.4ZM136.977 31H133.777V29.912C133.734 30.8507 132.817 31.32 131.025 31.32C129.788 31.32 128.657 30.9147 127.633 30.104C126.545 29.2293 126.001 28.1947 126.001 27C126.001 26.232 126.214 25.464 126.641 24.696C127.068 23.9067 127.59 23.2773 128.209 22.808C128.956 22.2533 129.948 21.976 131.185 21.976C132.252 21.976 133.116 22.1253 133.777 22.424V21.56C133.777 19.768 133.084 18.872 131.697 18.872C131.1 18.872 130.652 19.032 130.353 19.352C130.14 19.5867 129.926 20.0347 129.713 20.696H126.545C126.545 19.3733 127.014 18.2427 127.953 17.304C128.892 16.3653 130.022 15.896 131.345 15.896H132.177C133.5 15.896 134.63 16.3653 135.569 17.304C136.508 18.2427 136.977 19.3733 136.977 20.696V31ZM133.777 26.552C133.777 25.976 133.542 25.4853 133.073 25.08C132.625 24.6747 132.113 24.472 131.537 24.472C130.961 24.472 130.396 24.7067 129.841 25.176C129.308 25.624 129.041 26.1253 129.041 26.68C129.041 27.2347 129.329 27.6933 129.905 28.056C130.417 28.3973 130.961 28.568 131.537 28.568C132.113 28.568 132.625 28.376 133.073 27.992C133.542 27.5867 133.777 27.1067 133.777 26.552Z" fill="#FEFEFE"/>
</svg>
